# xmcd CD database file
#
# Track frame offsets:
#	150
#	20304
#	40147
#	60469
#	80873
#	108370
#	130554
#	148199
#	167213
#	183956
#	214400
#	234346
#
# Disc length: 3597 seconds
#
# Revision: 0
# Processed by: cddbd v1.5.1PL0 Copyright (c) Steve Scherf et al.
# Submitted via: CDex 1.51
#
DISCID=a20e0b0c
DTITLE=Various Artist - The Songs of Eric Clapton
DYEAR=2003
DGENRE=Blues
TTITLE0=01-Larry McCray - Miss You
TTITLE1=02-Otis Clay - Wonderful Tonight
TTITLE2=03-Ann Peebles - Tears In Heaven
TTITLE3=04-Koko Taylor - Blues Power
TTITLE4=05-Carl Weathersby - Lay Down Sally
TTITLE5=06-Buddy Guy - Strange Brew
TTITLE6=07-Bo Diddley - Before You Accuse Me
TTITLE7=08-Joe Louis Walker with Janes Cotton - Roll It Over
TTITLE8=09-Honeyboy Edwards with James Cotton - Crossroads
TTITLE9=10-Otis Rush - Old Love
TTITLE10=11-Pinetop Perkins wih John Hammond and Bob Margolin - Too Bad
TTITLE11=12-Eric Gales with Derek Trucks - Layla
EXTD=YEAR: 2003
EXTT0=
EXTT1=
EXTT2=
EXTT3=
EXTT4=
EXTT5=
EXTT6=
EXTT7=
EXTT8=
EXTT9=
EXTT10=
EXTT11=
PLAYORDER=
